<svg id="visual" viewBox="0 0 540 960" width="540" height="960" xmlns="http://www.w3.org/2000/svg" xmlns:xlink="http://www.w3.org/1999/xlink" version="1.1"><rect x="0" y="0" width="540" height="960" fill="#ffffff"></rect><defs><linearGradient id="grad1_0" x1="0%" y1="0%" x2="100%" y2="100%"><stop offset="30%" stop-color="#ffffff" stop-opacity="1"></stop><stop offset="70%" stop-color="#ffffff" stop-opacity="1"></stop></linearGradient></defs><defs><linearGradient id="grad2_0" x1="0%" y1="0%" x2="100%" y2="100%"><stop offset="30%" stop-color="#ffffff" stop-opacity="1"></stop><stop offset="70%" stop-color="#ffffff" stop-opacity="1"></stop></linearGradient></defs><g transform="translate(540, 0)"><path d="M0 351C-31.6 346.8 -63.3 342.6 -87.2 325.5C-111.2 308.5 -127.4 278.6 -151 261.5C-174.6 244.4 -205.5 240.1 -222.7 222.7C-240 205.4 -243.7 175.1 -264.1 152.5C-284.6 129.9 -321.8 115 -339 90.8C-356.3 66.7 -353.7 33.4 -351 0L0 0Z" fill="#1976D2"></path></g><g transform="translate(0, 960)"><path d="M0 -351C28.8 -340 57.7 -328.9 85.7 -319.7C113.7 -310.5 140.8 -303.1 169 -292.7C197.2 -282.3 226.5 -269 248.2 -248.2C269.9 -227.4 283.9 -199 297 -171.5C310.2 -144 322.5 -117.2 331.3 -88.8C340.2 -60.3 345.6 -30.2 351 0L0 0Z" fill="#1976D2"></path></g></svg>